<svg width="52" height="53" viewBox="0 0 52 53" fill="none" xmlns="http://www.w3.org/2000/svg">
<circle opacity="0.8" cx="26" cy="26.2947" r="26" fill="#F8E9FC"/>
<path d="M26.6784 28.7736L24.5909 30.861C24.1509 31.3011 23.4513 31.3011 23 30.8723C22.8758 30.7482 22.7517 30.6353 22.6276 30.5112C21.4654 29.3377 20.416 28.1078 19.4795 26.8215C18.5543 25.5352 17.8095 24.2489 17.2679 22.9738C16.7376 21.6875 16.4668 20.4576 16.4668 19.2841C16.4668 18.5168 16.6022 17.7834 16.873 17.1064C17.1438 16.4181 17.5726 15.7862 18.1706 15.222C18.8928 14.5112 19.6826 14.1614 20.5176 14.1614C20.8335 14.1614 21.1495 14.2291 21.4316 14.3645C21.7249 14.4999 21.9844 14.703 22.1876 14.9964L24.8053 18.6861C25.0084 18.9682 25.1551 19.2277 25.2567 19.4759C25.3582 19.7129 25.4146 19.9498 25.4146 20.1642C25.4146 20.435 25.3357 20.7058 25.1777 20.9654C25.031 21.2249 24.8166 21.4957 24.5458 21.7665L23.6883 22.6579C23.5641 22.782 23.5077 22.9287 23.5077 23.1092C23.5077 23.1995 23.519 23.2785 23.5416 23.3687C23.5754 23.459 23.6093 23.5267 23.6318 23.5944C23.8349 23.9668 24.1847 24.452 24.6812 25.0387C25.189 25.6255 25.7306 26.2235 26.3173 26.8215C26.4302 26.9343 26.5543 27.0472 26.6671 27.16C27.1185 27.6001 27.1297 28.3222 26.6784 28.7736Z" fill="#9D72D6"/>
<path d="M38.9997 32.5875C38.9997 32.9034 38.9433 33.2306 38.8305 33.5466C38.7966 33.6368 38.7628 33.7271 38.7176 33.8174C38.5258 34.2236 38.2776 34.6072 37.9504 34.9683C37.3975 35.5776 36.7882 36.0177 36.0999 36.2997C36.0886 36.2997 36.0773 36.311 36.066 36.311C35.4003 36.5818 34.6781 36.7285 33.8996 36.7285C32.7486 36.7285 31.5187 36.4577 30.2211 35.9048C28.9235 35.3519 27.6259 34.6072 26.3396 33.6707C25.8995 33.3435 25.4595 33.0162 25.042 32.6664L28.7317 28.9767C29.0476 29.2137 29.3297 29.3942 29.5667 29.5183C29.6231 29.5409 29.6908 29.5748 29.7698 29.6086C29.8601 29.6425 29.9503 29.6537 30.0519 29.6537C30.2437 29.6537 30.3904 29.586 30.5145 29.4619L31.3721 28.6157C31.6541 28.3336 31.9249 28.1192 32.1845 27.9838C32.444 27.8258 32.7035 27.7468 32.9856 27.7468C33.2 27.7468 33.4257 27.792 33.6739 27.8935C33.9221 27.9951 34.1817 28.1418 34.4637 28.3336L38.1986 30.9852C38.492 31.1883 38.6951 31.4253 38.8192 31.7073C38.932 31.9894 38.9997 32.2715 38.9997 32.5875Z" fill="#9D72D6" fill-opacity="0.53"/>
</svg>
