<svg width="52" height="53" viewBox="0 0 52 53" fill="none" xmlns="http://www.w3.org/2000/svg">
<circle cx="26" cy="26.2947" r="26" fill="#FDE7E9"/>
<path d="M25.0766 26.2209C28.287 26.2209 30.8895 23.6184 30.8895 20.408C30.8895 17.1976 28.287 14.595 25.0766 14.595C21.8662 14.595 19.2637 17.1976 19.2637 20.408C19.2637 23.6184 21.8662 26.2209 25.0766 26.2209Z" fill="#FF3232"/>
<path opacity="0.4" d="M25.0767 29.1274C19.2522 29.1274 14.5088 33.0337 14.5088 37.8468C14.5088 38.1724 14.7646 38.4281 15.0901 38.4281H35.0634C35.3889 38.4281 35.6447 38.1724 35.6447 37.8468C35.6447 33.0337 30.9013 29.1274 25.0767 29.1274Z" fill="#FF3232"/>
<path d="M36.0395 29.4064C34.9931 28.3601 34.1677 28.6972 33.4586 29.4064L29.343 33.522C29.1802 33.6848 29.0291 33.987 28.9942 34.2079L28.7733 35.7774C28.6919 36.347 29.0872 36.7423 29.6569 36.6609L31.2264 36.44C31.4472 36.4052 31.7612 36.254 31.9123 36.0913L36.0278 31.9757C36.7486 31.2782 37.0858 30.4527 36.0395 29.4064Z" fill="#FF3232"/>
</svg>
