<svg width="46" height="46" viewBox="0 0 46 46" fill="none" xmlns="http://www.w3.org/2000/svg">
<rect width="46" height="46" rx="9" fill="#A5CA64" fill-opacity="0.8"/>
<path d="M21.4614 11.1034C20.8257 11.2634 20.0822 11.6497 19.6111 12.0747C18.7086 12.8859 18.2432 13.9344 18.2432 15.1209C18.2489 17.378 19.9686 19.1384 22.273 19.2543C23.6635 19.326 24.9519 18.7742 25.8089 17.7533C26.1551 17.3338 26.5524 16.5447 26.6659 16.0315C26.7795 15.5458 26.7795 14.7291 26.6773 14.2435C26.3708 12.8362 25.2697 11.6553 23.8338 11.1807C23.2095 10.9765 22.1254 10.9379 21.4614 11.1034Z" fill="white"/>
<path d="M18.3568 19.304C17.8516 19.4088 17.1478 19.7565 16.7562 20.0986C16.5746 20.2532 16.427 20.4022 16.427 20.4242C16.427 20.4463 16.7392 20.507 17.1251 20.5622C19.6168 20.8988 21.3762 21.5224 22.2219 22.3668L22.4886 22.6372L22.8292 22.3171C23.2435 21.9308 23.8224 21.6052 24.6057 21.3182C25.5535 20.9706 26.9838 20.6505 28.2495 20.5125C28.4254 20.496 28.573 20.4573 28.573 20.4297C28.573 20.3525 28.0395 19.922 27.6989 19.7234C27.5286 19.6185 27.2051 19.475 26.9724 19.3923C26.5978 19.2653 26.4559 19.2488 25.5535 19.2267C24.5659 19.2046 24.5376 19.2046 24.1686 19.3481C23.1186 19.7565 21.9324 19.762 20.8257 19.3536C20.4738 19.2267 20.3716 19.2157 19.5827 19.2212C19.0832 19.2212 18.5724 19.2543 18.3568 19.304Z" fill="white"/>
<path d="M14.4973 21.6273C14.4973 22.4606 14.503 22.5378 14.5938 22.5047C14.8776 22.3944 16.4441 22.135 17.1422 22.0798C19.0946 21.9142 20.6951 22.3944 22.1481 23.5698L22.5057 23.8568L22.7724 23.6305C24.0551 22.5268 25.8146 21.9473 27.5514 22.0577C28.5276 22.1129 29.7478 22.3061 30.4062 22.5047C30.497 22.5323 30.5027 22.4661 30.5027 21.6218V20.7057L30.0657 20.7388C27.0462 20.943 24.9632 21.401 23.6919 22.1405C23.2265 22.4054 22.6986 22.9462 22.6078 23.2442C22.5681 23.3656 22.5227 23.4649 22.5057 23.4649C22.4886 23.4649 22.4262 23.3546 22.3638 23.2166C21.8019 21.8866 19.0322 20.965 14.9116 20.7443L14.4973 20.7222V21.6273Z" fill="white"/>
<path d="M16.7959 22.4771C15.973 22.5654 14.923 22.7917 14.1 23.0566C13.68 23.189 13.3054 23.3215 13.2657 23.3435C13.1976 23.3822 13.2259 24.2707 13.3338 25.871L13.3735 26.3732L13.6686 26.4063C14.2078 26.4615 14.73 26.8037 14.9797 27.2727C15.2068 27.6977 15.2295 29.0883 15.0195 29.5574C14.7924 30.0486 14.293 30.4238 13.7595 30.5066C13.5438 30.5397 13.5268 30.5563 13.5551 30.6887C13.5722 30.766 13.6119 31.5441 13.6516 32.416C13.6914 33.2935 13.7254 34.0054 13.7311 34.0054C13.7424 34.0054 13.9468 33.906 14.1908 33.7846C14.7016 33.5363 15.3543 33.3431 16.1716 33.1997C16.9889 33.0562 18.7257 33.0562 19.35 33.1997C20.2241 33.3983 21.0527 33.7901 21.7054 34.3089C21.8757 34.4468 22.0346 34.5572 22.0573 34.5572C22.0857 34.5572 22.1027 32.1842 22.1027 29.287V24.0113L21.9495 23.8733C21.677 23.6305 20.8881 23.1449 20.4284 22.9352C19.7132 22.6151 19.0208 22.4716 18.1014 22.444C17.6643 22.433 17.0797 22.4495 16.7959 22.4771Z" fill="white"/>
<path d="M26.2062 22.4716C25.0314 22.6316 23.7884 23.2221 22.8519 24.0554L22.4943 24.3755V29.6733C22.4943 32.5871 22.5057 34.9821 22.517 34.9987C22.5284 35.0153 22.6873 34.8718 22.8632 34.6786C23.2605 34.2647 23.9814 33.7846 24.5886 33.5363C25.3435 33.2272 25.8941 33.1169 26.8419 33.0838C28.2778 33.0341 29.6741 33.2769 30.7241 33.7625C31.0192 33.895 31.2632 33.9998 31.2689 33.9943C31.2746 33.9833 31.3143 33.3321 31.3484 32.5429C31.3824 31.7538 31.4278 30.9812 31.4449 30.8267L31.4789 30.5452L31.2405 30.5066C30.9341 30.4625 30.5141 30.2528 30.3211 30.0486C29.9408 29.6567 29.7819 29.0166 29.8443 28.1116C29.8784 27.5321 29.9862 27.2396 30.2814 26.914C30.5084 26.6657 31.0703 26.3898 31.3654 26.3898C31.4789 26.3898 31.5868 26.3677 31.6038 26.3456C31.6208 26.318 31.6605 25.8545 31.6889 25.3081C31.723 24.7673 31.7627 24.1051 31.7797 23.8457L31.8138 23.3656L31.4562 23.2276C30.7468 22.9572 29.7251 22.6979 28.7716 22.5544C28.0849 22.4495 26.6886 22.4054 26.2062 22.4716Z" fill="white"/>
<path d="M12.3405 25.6006C12.2951 25.6172 12.1986 25.6834 12.1305 25.7441C12 25.8545 12 25.8655 12 27.5431C12 29.0718 12.0114 29.2539 12.1078 29.4526C12.3405 29.9382 12.7095 30.1369 13.3678 30.1424C13.89 30.1424 14.293 29.9768 14.52 29.6568C14.8776 29.1546 14.8776 27.7639 14.52 27.2617C14.3327 27.0023 13.8843 26.7761 13.5438 26.7761C13.3451 26.7761 13.2657 26.743 13.1295 26.616C12.9932 26.4781 12.9649 26.4063 12.9649 26.1746C12.9649 25.9648 12.9365 25.8655 12.84 25.7607C12.7038 25.6172 12.4881 25.5454 12.3405 25.6006Z" fill="white"/>
<path d="M32.16 25.7441C32.0635 25.8434 32.0351 25.9428 32.0351 26.158C32.0351 26.5664 31.8819 26.7264 31.4222 26.7816C30.463 26.8864 30.1281 27.4659 30.253 28.8069C30.3041 29.3146 30.3381 29.4526 30.4573 29.6347C30.8659 30.2307 32.0635 30.3355 32.6197 29.8223C32.9943 29.4802 33 29.436 33 27.5597V25.8545L32.8695 25.7386C32.6822 25.5675 32.3246 25.573 32.16 25.7441Z" fill="white"/>
</svg>
