<svg width="46" height="46" viewBox="0 0 46 46" fill="none" xmlns="http://www.w3.org/2000/svg">
<rect width="46" height="46" rx="9" fill="#3E81C5" fill-opacity="0.7"/>
<path d="M12.4545 29.2828C12.4545 29.6046 12.7148 29.869 13.0441 29.8816L14.8017 29.9489C17.3943 30.0238 19.6034 30.3984 21.7051 31.0876L22.2228 31.262C22.6222 31.3965 23.0381 31.1057 23.0365 30.6931L23.0091 23.5813L22.9655 16.0518C22.9641 15.7967 22.7973 15.5704 22.5501 15.488L21.6591 15.1911C19.4347 14.457 17.6398 14.1573 14.9551 14.0674L13.0908 14.0004C12.7432 13.9879 12.4545 14.2597 12.4545 14.5993V29.2828Z" fill="white"/>
<path d="M29.2683 14.2622C27.8722 14.472 26.3688 14.8465 24.8808 15.3409L24.4462 15.4876C24.2009 15.5703 24.0354 15.7949 24.0329 16.0484L23.9603 23.5963C23.8989 30.6231 23.9143 31.5521 24.1137 31.4622C26.5376 30.5632 29.1609 30.0538 32.137 29.9489L33.9553 29.8811C34.2849 29.8688 34.5455 29.6043 34.5455 29.2822V14.6265C34.5455 14.2937 34.2678 14.0246 33.9271 14.0272L32.5972 14.0375C31.508 14.0525 30.02 14.1423 29.2683 14.2622Z" fill="white"/>
<path d="M10 31.4007C10 31.7323 10.2757 32.0008 10.6152 32L16.029 31.9865H21.0724C21.251 31.9865 21.2916 31.7421 21.1222 31.6869C18.9591 31.0127 17.2256 30.758 14.3722 30.713L12.2106 30.6778C11.8771 30.6724 11.6092 30.4079 11.6072 30.0823L11.5648 23.2367L11.5366 16.4173C11.5352 16.0872 11.2609 15.8204 10.9229 15.8204H10.6136C10.2747 15.8204 10 16.0887 10 16.4197V31.4007Z" fill="white"/>
<path d="M35.4352 23.2367L35.3928 30.0823C35.3908 30.4079 35.1229 30.6724 34.7894 30.6778L32.6278 30.713C29.7744 30.758 28.0409 31.0127 25.8778 31.6869C25.7084 31.7421 25.749 31.9865 25.9276 31.9865H30.9864L36.3848 32C36.7243 32.0008 37 31.7323 37 31.4007V16.4197C37 16.0887 36.7253 15.8204 36.3864 15.8204H36.0771C35.7391 15.8204 35.4648 16.0872 35.4634 16.4173L35.4352 23.2367Z" fill="white"/>
<path d="M23.1165 23.6113C23.1165 28.0162 23.1318 29.8291 23.1472 27.6116C23.1778 25.4092 23.1778 21.8134 23.1472 19.596C23.1318 17.3936 23.1165 19.2064 23.1165 23.6113Z" fill="white"/>
<path d="M23.8835 23.5364C23.8835 27.8963 23.8989 29.6643 23.9142 27.4618C23.9449 25.2444 23.9449 21.6786 23.9142 19.5211C23.8989 17.3636 23.8835 19.1615 23.8835 23.5364Z" fill="white"/>
</svg>
