<svg width="46" height="46" viewBox="0 0 46 46" fill="none" xmlns="http://www.w3.org/2000/svg">
<rect width="46" height="46" rx="9" fill="#FF60A5" fill-opacity="0.7"/>
<path d="M22.9998 35.1053C29.6853 35.1053 35.1051 29.6856 35.1051 23C35.1051 16.3145 29.6853 10.8948 22.9998 10.8948C16.3142 10.8948 10.8945 16.3145 10.8945 23C10.8945 29.6856 16.3142 35.1053 22.9998 35.1053Z" fill="white"/>
<path d="M27.491 27.7574C27.3336 27.7574 27.1762 27.7211 27.031 27.6243L23.2784 25.3848C22.3462 24.828 21.6562 23.6053 21.6562 22.528V17.5648C21.6562 17.0685 22.0678 16.6569 22.5641 16.6569C23.0605 16.6569 23.472 17.0685 23.472 17.5648V22.528C23.472 22.9637 23.8352 23.6053 24.2105 23.8232L27.9631 26.0627C28.3989 26.3169 28.532 26.8737 28.2778 27.3095C28.0963 27.6001 27.7936 27.7574 27.491 27.7574Z" fill="#FF60A5"/>
</svg>
