<svg width="46" height="46" viewBox="0 0 46 46" fill="none" xmlns="http://www.w3.org/2000/svg">
<rect width="46" height="46" rx="9" fill="#F66850" fill-opacity="0.7"/>
<path d="M20.4875 30.475C26.0034 30.475 30.475 26.0034 30.475 20.4875C30.475 14.9715 26.0034 10.5 20.4875 10.5C14.9716 10.5 10.5 14.9715 10.5 20.4875C10.5 26.0034 14.9716 30.475 20.4875 30.475Z" fill="white"/>
<path d="M35.4621 27.9876C35.4621 32.1126 32.1121 35.4626 27.9871 35.4626C25.4371 35.4626 23.1996 34.1876 21.8496 32.2501C27.2996 31.6376 31.6371 27.3001 32.2496 21.8501C34.1871 23.2001 35.4621 25.4376 35.4621 27.9876Z" fill="white"/>
<path d="M22.3125 20.1374L19.3125 19.0874C19.0125 18.9874 18.95 18.9624 18.95 18.5249C18.95 18.1999 19.175 17.9374 19.4625 17.9374H21.3375C21.7375 17.9374 22.0625 18.2999 22.0625 18.7499C22.0625 19.2624 22.4875 19.6874 23 19.6874C23.5125 19.6874 23.9375 19.2624 23.9375 18.7499C23.9375 17.3124 22.825 16.1374 21.4375 16.0749V16.0124C21.4375 15.4999 21.0125 15.0749 20.5 15.0749C19.9875 15.0749 19.5625 15.4874 19.5625 16.0124V16.0749H19.45C18.1375 16.0749 17.0625 17.1749 17.0625 18.5374C17.0625 19.7249 17.5875 20.4874 18.675 20.8624L21.6875 21.9124C21.9875 22.0124 22.05 22.0374 22.05 22.4749C22.05 22.7999 21.825 23.0624 21.5375 23.0624H19.6625C19.2625 23.0624 18.9375 22.6999 18.9375 22.2499C18.9375 21.7374 18.5125 21.3124 18 21.3124C17.4875 21.3124 17.0625 21.7374 17.0625 22.2499C17.0625 23.6874 18.175 24.8624 19.5625 24.9249V24.9999C19.5625 25.5124 19.9875 25.9374 20.5 25.9374C21.0125 25.9374 21.4375 25.5124 21.4375 24.9999V24.9374H21.55C22.8625 24.9374 23.9375 23.8374 23.9375 22.4749C23.9375 21.2874 23.4 20.5249 22.3125 20.1374Z" fill="#F66850"/>
</svg>
